<svg width="230" height="63" viewBox="0 0 230 63" fill="none" xmlns="http://www.w3.org/2000/svg">
<rect width="230" height="63" rx="10" fill="url(#paint0_linear)"/>
<path d="M97.341 42.7H90.191L88.827 46H85.175L92.039 30.6H95.559L102.445 46H98.705L97.341 42.7ZM96.219 39.994L93.777 34.098L91.335 39.994H96.219ZM110.797 33.988C111.897 33.988 112.894 34.2447 113.789 34.758C114.698 35.2567 115.409 35.968 115.923 36.892C116.436 37.8013 116.693 38.8647 116.693 40.082C116.693 41.2993 116.436 42.37 115.923 43.294C115.409 44.2033 114.698 44.9147 113.789 45.428C112.894 45.9267 111.897 46.176 110.797 46.176C109.286 46.176 108.098 45.6993 107.233 44.746V50.268H103.801V34.164H107.079V35.528C107.929 34.5013 109.169 33.988 110.797 33.988ZM110.203 43.36C111.083 43.36 111.801 43.0667 112.359 42.48C112.931 41.8787 113.217 41.0793 113.217 40.082C113.217 39.0847 112.931 38.2927 112.359 37.706C111.801 37.1047 111.083 36.804 110.203 36.804C109.323 36.804 108.597 37.1047 108.025 37.706C107.467 38.2927 107.189 39.0847 107.189 40.082C107.189 41.0793 107.467 41.8787 108.025 42.48C108.597 43.0667 109.323 43.36 110.203 43.36ZM125.986 33.988C127.086 33.988 128.084 34.2447 128.978 34.758C129.888 35.2567 130.599 35.968 131.112 36.892C131.626 37.8013 131.882 38.8647 131.882 40.082C131.882 41.2993 131.626 42.37 131.112 43.294C130.599 44.2033 129.888 44.9147 128.978 45.428C128.084 45.9267 127.086 46.176 125.986 46.176C124.476 46.176 123.288 45.6993 122.422 44.746V50.268H118.99V34.164H122.268V35.528C123.119 34.5013 124.358 33.988 125.986 33.988ZM125.392 43.36C126.272 43.36 126.991 43.0667 127.548 42.48C128.12 41.8787 128.406 41.0793 128.406 40.082C128.406 39.0847 128.12 38.2927 127.548 37.706C126.991 37.1047 126.272 36.804 125.392 36.804C124.512 36.804 123.786 37.1047 123.214 37.706C122.657 38.2927 122.378 39.0847 122.378 40.082C122.378 41.0793 122.657 41.8787 123.214 42.48C123.786 43.0667 124.512 43.36 125.392 43.36ZM145.712 46.264C144.495 46.264 143.314 46.1027 142.17 45.78C141.041 45.4427 140.132 45.01 139.442 44.482L140.652 41.798C141.312 42.282 142.097 42.6707 143.006 42.964C143.916 43.2573 144.825 43.404 145.734 43.404C146.746 43.404 147.494 43.2573 147.978 42.964C148.462 42.656 148.704 42.2527 148.704 41.754C148.704 41.3873 148.558 41.0867 148.264 40.852C147.986 40.6027 147.619 40.4047 147.164 40.258C146.724 40.1113 146.123 39.95 145.36 39.774C144.187 39.4953 143.226 39.2167 142.478 38.938C141.73 38.6593 141.085 38.212 140.542 37.596C140.014 36.98 139.75 36.1587 139.75 35.132C139.75 34.2373 139.992 33.4307 140.476 32.712C140.96 31.9787 141.686 31.3993 142.654 30.974C143.637 30.5487 144.832 30.336 146.24 30.336C147.223 30.336 148.184 30.4533 149.122 30.688C150.061 30.9227 150.882 31.26 151.586 31.7L150.486 34.406C149.064 33.5993 147.641 33.196 146.218 33.196C145.221 33.196 144.48 33.3573 143.996 33.68C143.527 34.0027 143.292 34.428 143.292 34.956C143.292 35.484 143.564 35.88 144.106 36.144C144.664 36.3933 145.507 36.6427 146.636 36.892C147.81 37.1707 148.77 37.4493 149.518 37.728C150.266 38.0067 150.904 38.4467 151.432 39.048C151.975 39.6493 152.246 40.4633 152.246 41.49C152.246 42.37 151.997 43.1767 151.498 43.91C151.014 44.6287 150.281 45.2007 149.298 45.626C148.316 46.0513 147.12 46.264 145.712 46.264ZM162.073 45.428C161.736 45.6773 161.318 45.868 160.819 46C160.335 46.1173 159.822 46.176 159.279 46.176C157.871 46.176 156.779 45.8167 156.001 45.098C155.239 44.3793 154.857 43.3233 154.857 41.93V37.068H153.031V34.428H154.857V31.546H158.289V34.428H161.237V37.068H158.289V41.886C158.289 42.3847 158.414 42.7733 158.663 43.052C158.927 43.316 159.294 43.448 159.763 43.448C160.306 43.448 160.768 43.3013 161.149 43.008L162.073 45.428ZM169.267 46.176C168.02 46.176 166.898 45.9193 165.901 45.406C164.918 44.878 164.148 44.152 163.591 43.228C163.033 42.304 162.755 41.2553 162.755 40.082C162.755 38.9087 163.033 37.86 163.591 36.936C164.148 36.012 164.918 35.2933 165.901 34.78C166.898 34.252 168.02 33.988 169.267 33.988C170.513 33.988 171.628 34.252 172.611 34.78C173.593 35.2933 174.363 36.012 174.921 36.936C175.478 37.86 175.757 38.9087 175.757 40.082C175.757 41.2553 175.478 42.304 174.921 43.228C174.363 44.152 173.593 44.878 172.611 45.406C171.628 45.9193 170.513 46.176 169.267 46.176ZM169.267 43.36C170.147 43.36 170.865 43.0667 171.423 42.48C171.995 41.8787 172.281 41.0793 172.281 40.082C172.281 39.0847 171.995 38.2927 171.423 37.706C170.865 37.1047 170.147 36.804 169.267 36.804C168.387 36.804 167.661 37.1047 167.089 37.706C166.517 38.2927 166.231 39.0847 166.231 40.082C166.231 41.0793 166.517 41.8787 167.089 42.48C167.661 43.0667 168.387 43.36 169.267 43.36ZM181.329 35.726C181.739 35.154 182.289 34.7213 182.979 34.428C183.683 34.1347 184.489 33.988 185.399 33.988V37.156C185.017 37.1267 184.761 37.112 184.629 37.112C183.646 37.112 182.876 37.3907 182.319 37.948C181.761 38.4907 181.483 39.312 181.483 40.412V46H178.051V34.164H181.329V35.726ZM198.926 40.126C198.926 40.17 198.904 40.478 198.86 41.05H189.906C190.067 41.7833 190.449 42.3627 191.05 42.788C191.651 43.2133 192.399 43.426 193.294 43.426C193.91 43.426 194.453 43.338 194.922 43.162C195.406 42.9713 195.853 42.678 196.264 42.282L198.09 44.262C196.975 45.538 195.347 46.176 193.206 46.176C191.871 46.176 190.691 45.9193 189.664 45.406C188.637 44.878 187.845 44.152 187.288 43.228C186.731 42.304 186.452 41.2553 186.452 40.082C186.452 38.9233 186.723 37.882 187.266 36.958C187.823 36.0193 188.579 35.2933 189.532 34.78C190.5 34.252 191.578 33.988 192.766 33.988C193.925 33.988 194.973 34.2373 195.912 34.736C196.851 35.2347 197.584 35.9533 198.112 36.892C198.655 37.816 198.926 38.894 198.926 40.126ZM192.788 36.584C192.011 36.584 191.358 36.804 190.83 37.244C190.302 37.684 189.979 38.2853 189.862 39.048H195.692C195.575 38.3 195.252 37.706 194.724 37.266C194.196 36.8113 193.551 36.584 192.788 36.584Z" fill="white"/>
<path d="M86.5784 14.6H90.1184C91.0064 14.6 91.7944 14.776 92.4824 15.128C93.1704 15.48 93.7024 15.976 94.0784 16.616C94.4624 17.248 94.6544 17.976 94.6544 18.8C94.6544 19.624 94.4624 20.356 94.0784 20.996C93.7024 21.628 93.1704 22.12 92.4824 22.472C91.7944 22.824 91.0064 23 90.1184 23H86.5784V14.6ZM90.0464 21.956C90.7264 21.956 91.3224 21.824 91.8344 21.56C92.3544 21.296 92.7544 20.928 93.0344 20.456C93.3144 19.976 93.4544 19.424 93.4544 18.8C93.4544 18.176 93.3144 17.628 93.0344 17.156C92.7544 16.676 92.3544 16.304 91.8344 16.04C91.3224 15.776 90.7264 15.644 90.0464 15.644H87.7784V21.956H90.0464ZM99.0484 23.072C98.4164 23.072 97.8484 22.932 97.3444 22.652C96.8404 22.372 96.4444 21.988 96.1564 21.5C95.8764 21.004 95.7364 20.444 95.7364 19.82C95.7364 19.196 95.8764 18.64 96.1564 18.152C96.4444 17.656 96.8404 17.272 97.3444 17C97.8484 16.72 98.4164 16.58 99.0484 16.58C99.6804 16.58 100.244 16.72 100.74 17C101.244 17.272 101.636 17.656 101.916 18.152C102.204 18.64 102.348 19.196 102.348 19.82C102.348 20.444 102.204 21.004 101.916 21.5C101.636 21.988 101.244 22.372 100.74 22.652C100.244 22.932 99.6804 23.072 99.0484 23.072ZM99.0484 22.064C99.4564 22.064 99.8204 21.972 100.14 21.788C100.468 21.596 100.724 21.332 100.908 20.996C101.092 20.652 101.184 20.26 101.184 19.82C101.184 19.38 101.092 18.992 100.908 18.656C100.724 18.312 100.468 18.048 100.14 17.864C99.8204 17.68 99.4564 17.588 99.0484 17.588C98.6404 17.588 98.2724 17.68 97.9444 17.864C97.6244 18.048 97.3684 18.312 97.1764 18.656C96.9924 18.992 96.9004 19.38 96.9004 19.82C96.9004 20.26 96.9924 20.652 97.1764 20.996C97.3684 21.332 97.6244 21.596 97.9444 21.788C98.2724 21.972 98.6404 22.064 99.0484 22.064ZM113.39 16.64L111.014 23H109.91L108.074 18.176L106.214 23H105.11L102.746 16.64H103.838L105.686 21.704L107.606 16.64H108.578L110.462 21.728L112.358 16.64H113.39ZM117.955 16.58C118.763 16.58 119.403 16.816 119.875 17.288C120.355 17.752 120.595 18.436 120.595 19.34V23H119.443V19.472C119.443 18.856 119.295 18.392 118.999 18.08C118.703 17.768 118.279 17.612 117.727 17.612C117.103 17.612 116.611 17.796 116.251 18.164C115.891 18.524 115.711 19.044 115.711 19.724V23H114.559V16.64H115.663V17.6C115.895 17.272 116.207 17.02 116.599 16.844C116.999 16.668 117.451 16.58 117.955 16.58ZM122.727 14.096H123.879V23H122.727V14.096ZM128.802 23.072C128.17 23.072 127.602 22.932 127.098 22.652C126.594 22.372 126.198 21.988 125.91 21.5C125.63 21.004 125.49 20.444 125.49 19.82C125.49 19.196 125.63 18.64 125.91 18.152C126.198 17.656 126.594 17.272 127.098 17C127.602 16.72 128.17 16.58 128.802 16.58C129.434 16.58 129.998 16.72 130.494 17C130.998 17.272 131.39 17.656 131.67 18.152C131.958 18.64 132.102 19.196 132.102 19.82C132.102 20.444 131.958 21.004 131.67 21.5C131.39 21.988 130.998 22.372 130.494 22.652C129.998 22.932 129.434 23.072 128.802 23.072ZM128.802 22.064C129.21 22.064 129.574 21.972 129.894 21.788C130.222 21.596 130.478 21.332 130.662 20.996C130.846 20.652 130.938 20.26 130.938 19.82C130.938 19.38 130.846 18.992 130.662 18.656C130.478 18.312 130.222 18.048 129.894 17.864C129.574 17.68 129.21 17.588 128.802 17.588C128.394 17.588 128.026 17.68 127.698 17.864C127.378 18.048 127.122 18.312 126.93 18.656C126.746 18.992 126.654 19.38 126.654 19.82C126.654 20.26 126.746 20.652 126.93 20.996C127.122 21.332 127.378 21.596 127.698 21.788C128.026 21.972 128.394 22.064 128.802 22.064ZM135.953 16.58C136.833 16.58 137.505 16.796 137.969 17.228C138.441 17.66 138.677 18.304 138.677 19.16V23H137.585V22.16C137.393 22.456 137.117 22.684 136.757 22.844C136.405 22.996 135.985 23.072 135.497 23.072C134.785 23.072 134.213 22.9 133.781 22.556C133.357 22.212 133.145 21.76 133.145 21.2C133.145 20.64 133.349 20.192 133.757 19.856C134.165 19.512 134.813 19.34 135.701 19.34H137.525V19.112C137.525 18.616 137.381 18.236 137.093 17.972C136.805 17.708 136.381 17.576 135.821 17.576C135.445 17.576 135.077 17.64 134.717 17.768C134.357 17.888 134.053 18.052 133.805 18.26L133.325 17.396C133.653 17.132 134.045 16.932 134.501 16.796C134.957 16.652 135.441 16.58 135.953 16.58ZM135.689 22.184C136.129 22.184 136.509 22.088 136.829 21.896C137.149 21.696 137.381 21.416 137.525 21.056V20.168H135.749C134.773 20.168 134.285 20.496 134.285 21.152C134.285 21.472 134.409 21.724 134.657 21.908C134.905 22.092 135.249 22.184 135.689 22.184ZM146.844 14.096V23H145.74V21.992C145.484 22.344 145.16 22.612 144.768 22.796C144.376 22.98 143.944 23.072 143.472 23.072C142.856 23.072 142.304 22.936 141.816 22.664C141.328 22.392 140.944 22.012 140.664 21.524C140.392 21.028 140.256 20.46 140.256 19.82C140.256 19.18 140.392 18.616 140.664 18.128C140.944 17.64 141.328 17.26 141.816 16.988C142.304 16.716 142.856 16.58 143.472 16.58C143.928 16.58 144.348 16.668 144.732 16.844C145.116 17.012 145.436 17.264 145.692 17.6V14.096H146.844ZM143.568 22.064C143.968 22.064 144.332 21.972 144.66 21.788C144.988 21.596 145.244 21.332 145.428 20.996C145.612 20.652 145.704 20.26 145.704 19.82C145.704 19.38 145.612 18.992 145.428 18.656C145.244 18.312 144.988 18.048 144.66 17.864C144.332 17.68 143.968 17.588 143.568 17.588C143.16 17.588 142.792 17.68 142.464 17.864C142.144 18.048 141.888 18.312 141.696 18.656C141.512 18.992 141.42 19.38 141.42 19.82C141.42 20.26 141.512 20.652 141.696 20.996C141.888 21.332 142.144 21.596 142.464 21.788C142.792 21.972 143.16 22.064 143.568 22.064ZM154.97 23.072C154.338 23.072 153.77 22.932 153.266 22.652C152.762 22.372 152.366 21.988 152.078 21.5C151.798 21.004 151.658 20.444 151.658 19.82C151.658 19.196 151.798 18.64 152.078 18.152C152.366 17.656 152.762 17.272 153.266 17C153.77 16.72 154.338 16.58 154.97 16.58C155.602 16.58 156.166 16.72 156.662 17C157.166 17.272 157.558 17.656 157.838 18.152C158.126 18.64 158.27 19.196 158.27 19.82C158.27 20.444 158.126 21.004 157.838 21.5C157.558 21.988 157.166 22.372 156.662 22.652C156.166 22.932 155.602 23.072 154.97 23.072ZM154.97 22.064C155.378 22.064 155.742 21.972 156.062 21.788C156.39 21.596 156.646 21.332 156.83 20.996C157.014 20.652 157.106 20.26 157.106 19.82C157.106 19.38 157.014 18.992 156.83 18.656C156.646 18.312 156.39 18.048 156.062 17.864C155.742 17.68 155.378 17.588 154.97 17.588C154.562 17.588 154.194 17.68 153.866 17.864C153.546 18.048 153.29 18.312 153.098 18.656C152.914 18.992 152.822 19.38 152.822 19.82C152.822 20.26 152.914 20.652 153.098 20.996C153.29 21.332 153.546 21.596 153.866 21.788C154.194 21.972 154.562 22.064 154.97 22.064ZM163.259 16.58C164.067 16.58 164.707 16.816 165.179 17.288C165.659 17.752 165.899 18.436 165.899 19.34V23H164.747V19.472C164.747 18.856 164.599 18.392 164.303 18.08C164.007 17.768 163.583 17.612 163.031 17.612C162.407 17.612 161.915 17.796 161.555 18.164C161.195 18.524 161.015 19.044 161.015 19.724V23H159.863V16.64H160.967V17.6C161.199 17.272 161.511 17.02 161.903 16.844C162.303 16.668 162.755 16.58 163.259 16.58ZM174.83 22.628C174.662 22.772 174.454 22.884 174.206 22.964C173.958 23.036 173.702 23.072 173.438 23.072C172.798 23.072 172.302 22.9 171.95 22.556C171.598 22.212 171.422 21.72 171.422 21.08V17.588H170.342V16.64H171.422V15.248H172.574V16.64H174.398V17.588H172.574V21.032C172.574 21.376 172.658 21.64 172.826 21.824C173.002 22.008 173.25 22.1 173.57 22.1C173.922 22.1 174.222 22 174.47 21.8L174.83 22.628ZM179.619 16.58C180.427 16.58 181.067 16.816 181.539 17.288C182.019 17.752 182.259 18.436 182.259 19.34V23H181.107V19.472C181.107 18.856 180.959 18.392 180.663 18.08C180.367 17.768 179.943 17.612 179.391 17.612C178.767 17.612 178.275 17.796 177.915 18.164C177.555 18.524 177.375 19.044 177.375 19.724V23H176.223V14.096H177.375V17.54C177.615 17.236 177.927 17 178.311 16.832C178.703 16.664 179.139 16.58 179.619 16.58ZM190.174 19.856C190.174 19.944 190.166 20.06 190.15 20.204H184.99C185.062 20.764 185.306 21.216 185.722 21.56C186.146 21.896 186.67 22.064 187.294 22.064C188.054 22.064 188.666 21.808 189.13 21.296L189.766 22.04C189.478 22.376 189.118 22.632 188.686 22.808C188.262 22.984 187.786 23.072 187.258 23.072C186.586 23.072 185.99 22.936 185.47 22.664C184.95 22.384 184.546 21.996 184.258 21.5C183.978 21.004 183.838 20.444 183.838 19.82C183.838 19.204 183.974 18.648 184.246 18.152C184.526 17.656 184.906 17.272 185.386 17C185.874 16.72 186.422 16.58 187.03 16.58C187.638 16.58 188.178 16.72 188.65 17C189.13 17.272 189.502 17.656 189.766 18.152C190.038 18.648 190.174 19.216 190.174 19.856ZM187.03 17.552C186.478 17.552 186.014 17.72 185.638 18.056C185.27 18.392 185.054 18.832 184.99 19.376H189.07C189.006 18.84 188.786 18.404 188.41 18.068C188.042 17.724 187.582 17.552 187.03 17.552Z" fill="white"/>
<path d="M35.3427 25.7041C31.9611 31.5723 34.1108 40.4776 37.8504 45.8772C39.717 48.5768 41.6068 51 44.1953 51C44.2441 51 44.293 50.9991 44.3431 50.9971C45.5592 50.9486 46.438 50.5742 47.2877 50.2123C48.2417 49.8058 49.2283 49.3854 50.7759 49.3854C52.2481 49.3854 53.1877 49.7921 54.0963 50.1853C54.9917 50.5727 55.9141 50.9735 57.277 50.9479C60.1927 50.8936 61.9828 48.2788 63.5622 45.9721C65.2104 43.5635 66.0371 41.225 66.3161 40.3314L66.3274 40.2959C66.3805 40.137 66.3055 39.9637 66.1532 39.8938C66.149 39.8918 66.1335 39.8854 66.1292 39.8835C65.6157 39.6736 61.1119 37.6755 61.0645 32.2298C61.0206 27.8054 64.4433 25.4624 65.1297 25.0378L65.1617 25.0178C65.2361 24.97 65.2879 24.894 65.3055 24.8072C65.323 24.7205 65.3047 24.6303 65.2548 24.5574C62.8923 21.1001 59.2714 20.579 57.8135 20.5163C57.602 20.4952 57.3836 20.4846 57.1643 20.4846C55.4521 20.4846 53.8118 21.1313 52.494 21.6509C51.5844 22.0096 50.7987 22.3193 50.2568 22.3193C49.6479 22.3193 48.8577 22.0058 47.9427 21.6428C46.7191 21.1571 45.3322 20.6068 43.864 20.6068C43.829 20.6068 43.7945 20.6072 43.7605 20.6079C40.3468 20.6581 37.1211 22.6111 35.3427 25.7041Z" fill="white"/>
<path d="M57.8165 11.0003C55.7493 11.0845 53.2694 12.357 51.7872 14.0931C50.5275 15.5524 49.2969 17.9854 49.6211 20.4379C49.6414 20.5913 49.7663 20.7098 49.9207 20.7217C50.0602 20.7326 50.2026 20.7381 50.3445 20.7382C52.3659 20.7382 54.5465 19.6199 56.0357 17.8193C57.603 15.9179 58.3955 13.4778 58.1558 11.2921C58.1369 11.1208 57.9862 10.9936 57.8165 11.0003Z" fill="white"/>
<defs>
<linearGradient id="paint0_linear" x1="0" y1="0" x2="236.638" y2="46.7427" gradientUnits="userSpaceOnUse">
<stop stop-color="#8CCBC5"/>
<stop offset="1" stop-color="#7BBBCF"/>
</linearGradient>
</defs>
</svg>
