<svg width="119" height="118" viewBox="0 0 119 118" fill="none" xmlns="http://www.w3.org/2000/svg">
<g clip-path="url(#clip0)">
<path d="M66.4784 48.1635C68.3101 48.1635 69.795 46.6796 69.795 44.8492C69.795 43.0187 68.3101 41.5348 66.4784 41.5348C64.6466 41.5348 63.1617 43.0187 63.1617 44.8492C63.1617 46.6796 64.6466 48.1635 66.4784 48.1635Z" fill="white"/>
<path d="M78.6943 46.2651C80.526 46.2651 82.0109 44.7812 82.0109 42.9507C82.0109 41.1202 80.526 39.6364 78.6943 39.6364C76.8625 39.6364 75.3776 41.1202 75.3776 42.9507C75.3776 44.7812 76.8625 46.2651 78.6943 46.2651Z" fill="white"/>
<path d="M90.2059 42.795C92.0377 42.795 93.5226 41.3111 93.5226 39.4806C93.5226 37.6502 92.0377 36.1663 90.2059 36.1663C88.3742 36.1663 86.8893 37.6502 86.8893 39.4806C86.8893 41.3111 88.3742 42.795 90.2059 42.795Z" fill="white"/>
<path d="M66.4784 76.4401C68.3101 76.4401 69.795 74.9562 69.795 73.1258C69.795 71.2953 68.3101 69.8114 66.4784 69.8114C64.6466 69.8114 63.1617 71.2953 63.1617 73.1258C63.1617 74.9562 64.6466 76.4401 66.4784 76.4401Z" fill="white"/>
<path d="M78.6943 74.5417C80.526 74.5417 82.0109 73.0578 82.0109 71.2273C82.0109 69.3969 80.526 67.913 78.6943 67.913C76.8625 67.913 75.3776 69.3969 75.3776 71.2273C75.3776 73.0578 76.8625 74.5417 78.6943 74.5417Z" fill="white"/>
<path d="M90.2059 71.0716C92.0377 71.0716 93.5226 69.5877 93.5226 67.7572C93.5226 65.9268 92.0377 64.4429 90.2059 64.4429C88.3742 64.4429 86.8893 65.9268 86.8893 67.7572C86.8893 69.5877 88.3742 71.0716 90.2059 71.0716Z" fill="white"/>
<path d="M66.4784 104.231C68.3101 104.231 69.795 102.747 69.795 100.917C69.795 99.0861 68.3101 97.6022 66.4784 97.6022C64.6466 97.6022 63.1617 99.0861 63.1617 100.917C63.1617 102.747 64.6466 104.231 66.4784 104.231Z" fill="white"/>
<path d="M78.6943 102.333C80.526 102.333 82.0109 100.849 82.0109 99.0182C82.0109 97.1878 80.526 95.7039 78.6943 95.7039C76.8625 95.7039 75.3776 97.1878 75.3776 99.0182C75.3776 100.849 76.8625 102.333 78.6943 102.333Z" fill="white"/>
<path d="M90.2059 98.8647C92.0377 98.8647 93.5226 97.3808 93.5226 95.5503C93.5226 93.7199 92.0377 92.236 90.2059 92.236C88.3742 92.236 86.8893 93.7199 86.8893 95.5503C86.8893 97.3808 88.3742 98.8647 90.2059 98.8647Z" fill="white"/>
<path d="M100.327 16.9473C100.324 12.1063 95.8719 7.70663 87.7907 4.5582C80.2464 1.61881 70.2546 0 59.6556 0C49.0566 0 39.0649 1.61881 31.5208 4.55797C23.4366 7.70778 18.9843 12.1095 18.9843 16.9526V44.9844V73.0158V101.048C18.9843 105.891 23.4366 110.292 31.5208 113.442C39.0647 116.381 49.0566 118 59.6556 118C70.2546 118 80.2464 116.381 87.7907 113.442C95.8749 110.292 100.327 105.891 100.327 101.048V73.0163V73.016V73.0158V44.9846V44.9844V44.9842V16.9526C100.327 16.9505 100.327 16.9489 100.327 16.9473ZM22.6149 24.1611C22.6176 24.1637 22.6204 24.166 22.6232 24.1685C25.164 26.52 28.319 28.0996 31.521 29.3471C39.0649 32.2863 49.0569 33.9051 59.6559 33.9051C63.2993 33.9051 66.8709 33.7138 70.2962 33.3432C76.8352 32.6359 82.84 31.2759 87.7909 29.3471C90.9342 28.1224 94.0777 26.5387 96.5922 24.2547C96.6233 24.2264 96.6561 24.1982 96.6868 24.1701C96.6902 24.1669 96.6939 24.1639 96.6974 24.1607C96.6974 24.1607 96.6974 44.9833 96.6974 44.9844C96.6974 45.6023 96.5523 46.2197 96.3106 46.7867C95.6948 48.2343 94.5527 49.3615 93.3297 50.314C84.1244 57.4839 70.8879 58.3094 59.6559 58.3094C58.0858 58.3094 56.5154 58.2732 54.9471 58.1983C46.5792 57.8005 38.8589 56.3442 32.8398 53.999C26.3416 51.4673 22.6149 48.1812 22.6149 44.9842V24.1611ZM32.8395 7.93756C39.9733 5.15811 49.4969 3.62734 59.6556 3.62734C69.8144 3.62734 79.3379 5.15811 86.4717 7.93733C92.9699 10.469 96.6967 13.755 96.6967 16.9523C96.6967 20.1496 92.9697 23.4356 86.4717 25.9673C82.013 27.7046 76.6209 28.954 70.7237 29.6465C67.1852 30.0623 63.4652 30.2775 59.6556 30.2775C49.4969 30.2775 39.9733 28.7468 32.8395 25.9676C26.3413 23.4359 22.6144 20.1498 22.6144 16.9526C22.6144 13.7553 26.3413 10.469 32.8395 7.93756ZM22.6146 52.1923C22.6179 52.1953 22.6211 52.1981 22.6243 52.2011C22.6596 52.2338 22.697 52.2656 22.7327 52.2981C25.2496 54.5802 28.3755 56.1536 31.5213 57.3788C39.0651 60.3179 49.0571 61.9367 59.6561 61.9367C61.0708 61.9367 62.4744 61.907 63.863 61.8499C65.4004 61.7867 66.9195 61.6901 68.4138 61.5592C68.4534 61.5558 68.4929 61.5516 68.5325 61.5484C73.0732 61.1444 77.3838 60.4299 81.2999 59.4334C86.0333 58.2287 90.841 56.5498 94.8468 53.6897C95.4905 53.2301 96.1072 52.7332 96.6898 52.1988C96.6921 52.1967 96.6948 52.1942 96.6976 52.1921V73.0158C96.6976 73.4101 96.6395 73.8019 96.5338 74.1818C96.5304 74.1935 96.5283 74.2055 96.5248 74.2175C96.0212 75.9859 94.6203 77.3601 93.1985 78.4452C91.5094 79.734 89.2439 80.9513 86.4722 82.031C81.3988 84.0078 75.1161 85.3519 68.2567 85.9638C68.0704 85.9803 67.8833 85.9965 67.696 86.0119C65.0849 86.2288 62.3939 86.341 59.6561 86.341C49.4974 86.341 39.9738 84.8103 32.84 82.031C26.3418 79.4994 22.6151 76.2133 22.6151 73.016V52.1923H22.6146ZM96.6976 101.047H96.6974C96.6974 104.245 92.9704 107.53 86.4724 110.062C79.3384 112.841 69.8151 114.372 59.6561 114.372C49.4972 114.372 39.974 112.841 32.84 110.062C26.3418 107.53 22.6151 104.244 22.6151 101.047V80.2237C22.6181 80.2265 22.6208 80.2288 22.6238 80.2315C22.6633 80.268 22.7053 80.3041 22.7454 80.3403C25.2708 82.628 28.3679 84.1815 31.5217 85.4102C39.0656 88.3493 49.0576 89.9681 59.6566 89.9681C61.0265 89.9681 62.3858 89.9405 63.7313 89.887C72.7969 89.527 81.222 87.9695 87.7912 85.4104C90.2151 84.4662 92.5726 83.3154 94.7066 81.8204C95.356 81.3652 95.9787 80.8729 96.5668 80.3408C96.6072 80.3044 96.6496 80.268 96.6893 80.2313C96.6923 80.2285 96.695 80.2262 96.698 80.2235V101.047H96.6976Z" fill="white"/>
</g>
<defs>
<clipPath id="clip0">
<rect width="118.082" height="118" fill="white" transform="translate(0.614746)"/>
</clipPath>
</defs>
</svg>
