<svg width="116" height="115" viewBox="0 0 116 115" fill="none" xmlns="http://www.w3.org/2000/svg">
<g clip-path="url(#clip0)">
<path d="M113.895 14.0938L102.057 12.4213L101.443 5.90542C101.357 4.9834 100.511 4.2797 99.5865 4.3691L66.8587 7.44871L16.6699 0.358032C15.7385 0.226411 14.8752 0.874857 14.7435 1.80631L13.2313 12.4948L1.82667 13.568C0.889403 13.656 0.200948 14.4871 0.28928 15.4237L5.2975 68.5749L0.998414 98.9638C0.8685 99.8827 1.52886 100.759 2.4477 100.889L8.42218 101.733L9.49454 113.115C9.5813 114.037 10.4271 114.74 11.3515 114.651L64.2712 109.672C64.3285 109.666 64.3849 109.658 64.4402 109.647L99.6728 114.625C100.593 114.755 101.469 114.095 101.599 113.177L102.606 106.065L109.111 105.453C110.048 105.365 110.737 104.534 110.648 103.597L107.584 71.0755C107.581 71.0416 107.575 71.0092 107.569 70.976L115.345 16.0191C115.476 15.0874 114.828 14.2256 113.895 14.0938ZM98.2087 7.92062L98.5865 11.931L81.3976 9.50276L98.2087 7.92062ZM3.84349 16.8001L12.7408 15.963L7.3532 54.0461L3.84349 16.8001ZM12.7291 111.1L11.8928 102.224L49.9381 107.598L12.7291 111.1ZM103.096 102.596L105.517 85.483L107.094 102.22L103.096 102.596ZM98.4622 111.013L4.61286 97.7539L17.8808 3.96997L111.73 17.2286L98.4622 111.013Z" fill="white"/>
<path d="M105.675 20.273L84.8736 17.3342C83.9413 17.2033 83.0788 17.8511 82.9471 18.7825C82.8152 19.714 83.4641 20.576 84.3964 20.7076L103.51 23.4081L93.2967 95.6015L13.8512 84.3777L24.0647 12.1844L76.3015 19.5644C77.2352 19.6967 78.0962 19.0475 78.228 18.1161C78.3599 17.1846 77.711 16.3226 76.7787 16.191L22.8539 8.57223C22.406 8.50934 21.9517 8.62636 21.5903 8.89769C21.2291 9.16924 20.9904 9.57331 20.9272 10.0207L10.2367 85.5875C10.1048 86.5189 10.7539 87.381 11.686 87.5126L94.5075 99.2134C94.5884 99.2248 94.6686 99.2305 94.7484 99.2305C95.5839 99.2305 96.3139 98.6157 96.4341 97.7651L107.125 22.1981C107.256 21.2669 106.608 20.4049 105.675 20.273Z" fill="white"/>
<path d="M86.7902 52.2939C85.8115 51.4034 83.2348 49.5182 79.3053 49.8668C81.3632 43.0695 79.5262 35.683 74.5308 31.8233C71.8473 29.7499 68.5293 28.903 64.9338 29.3735C61.4787 29.8256 57.882 31.4608 54.2212 34.2399C51.3137 30.3378 48.1252 27.6932 44.7249 26.3682C41.2213 25.0026 37.6657 25.1199 34.4428 26.7067C27.2836 30.2317 23.933 39.728 26.8147 48.3258C32.1432 64.2231 47.621 72.0809 48.2771 72.4074C48.605 72.5707 48.984 72.6246 49.3445 72.5582C49.4335 72.5418 51.4182 72.1723 54.3887 71.1732C59.314 78.2581 66.2985 81.804 66.6743 81.9911C67.0025 82.1544 67.3815 82.2083 67.742 82.1418C68.2722 82.0445 80.8114 79.6455 87.8259 69.4896C91.6909 63.8927 91.236 56.3396 86.7902 52.2939ZM49.2921 69.0871C46.6511 67.6275 34.4167 60.2777 30.0477 47.2432C28.8718 43.7343 28.9032 39.9611 30.137 36.6183C31.2817 33.5164 33.4003 31.0176 35.9496 29.7623C41.2159 27.1696 47.3879 30.1174 52.4595 37.6481C53.0158 38.474 54.2039 38.6433 54.9688 38.0028C61.674 32.3869 68.0441 31.1171 72.4459 34.5182C76.8326 37.908 78.0272 44.9367 75.2631 50.9342C74.0226 51.4692 72.6949 52.2241 71.2841 53.2591C64.86 44.9295 58.5194 47.1169 56.6525 48.036C51.2588 50.6918 48.7264 57.8227 50.8875 64.2708C51.3528 65.6586 51.9237 66.9618 52.5681 68.1837C51.0851 68.6556 49.932 68.9422 49.2921 69.0871ZM85.0199 67.5539C79.6087 75.3887 70.0914 78.0921 67.6896 78.6659C65.537 77.4472 57.1454 72.2134 54.1203 63.1886C52.324 57.8297 54.8182 52.7373 58.1589 51.0923C59.0274 50.6646 59.924 50.4544 60.8354 50.4544C63.743 50.4544 66.7959 52.5951 69.5246 56.6471C70.0809 57.4732 71.269 57.6421 72.0336 57.0017C76.954 52.8813 81.4958 52.0837 84.4949 54.8129C87.2487 57.3189 88.232 62.9027 85.0199 67.5539Z" fill="white"/>
</g>
<defs>
<clipPath id="clip0">
<rect width="115.08" height="115" fill="white" transform="translate(0.281647)"/>
</clipPath>
</defs>
</svg>
