<svg width="115" height="114" viewBox="0 0 115 114" fill="none" xmlns="http://www.w3.org/2000/svg">
<g clip-path="url(#clip0)">
<path d="M70.6305 13.2999H66.8278V3.8001H47.8146V13.3002H44.0119V1.90017C44.0119 0.851459 44.8637 0.000244141 45.9131 0.000244141H68.729C69.7784 0.000244141 70.6303 0.851459 70.6303 1.90017V13.2999H70.6305Z" fill="#E5E5E5"/>
<path d="M59.2227 34.2H55.42V102.6H59.2227V34.2Z" fill="#CCCCCC"/>
<path d="M45.9134 34.2H42.1106V102.6H45.9134V34.2Z" fill="#CCCCCC"/>
<path d="M30.6914 102.644L34.4923 102.539L32.5958 34.1487L28.7949 34.254L30.6914 102.644Z" fill="#CCCCCC"/>
<path d="M83.9398 102.66L85.8363 34.2692L82.0353 34.1639L80.1388 102.554L83.9398 102.66Z" fill="#CCCCCC"/>
<path d="M72.5319 34.2H68.7292V102.6H72.5319V34.2Z" fill="#CCCCCC"/>
<path d="M11.6896 26.6001H17.3935L20.8919 106.723C21.065 110.793 24.4208 114.004 28.4971 114H86.0882C90.1645 114.004 93.5205 110.793 93.6934 106.723L97.249 26.6001H102.953C104.002 26.6001 104.854 25.7489 104.854 24.7001V13.3001C104.854 12.2514 104.002 11.4002 102.953 11.4002H70.6305V1.89993C70.6305 0.851215 69.7787 0 68.7292 0H45.9134C44.8639 0 44.0121 0.851215 44.0121 1.89993V11.4H11.6896C10.6401 11.4 9.78833 12.2512 9.78833 13.2999V24.6999C9.78833 25.7489 10.6401 26.6001 11.6896 26.6001ZM89.8909 106.571C89.7996 108.602 88.1227 110.202 86.0882 110.2H28.5544C26.5199 110.202 24.843 108.602 24.7517 106.571L21.1963 26.6001H93.4465L89.8909 106.571ZM47.8146 3.80007H66.8277V11.4H47.8146V3.80007ZM13.5908 15.2001H101.052V22.8H13.5908V15.2001Z" fill="white"/>
<path d="M59.2228 34.2H55.42V102.6H59.2228V34.2Z" fill="white"/>
<path d="M45.9133 34.2H42.1106V102.6H45.9133V34.2Z" fill="white"/>
<path d="M30.6914 102.644L34.4924 102.539L32.5959 34.1487L28.7949 34.254L30.6914 102.644Z" fill="white"/>
<path d="M83.9398 102.66L85.8363 34.2692L82.0353 34.1639L80.1388 102.554L83.9398 102.66Z" fill="white"/>
<path d="M72.5319 34.2H68.7292V102.6H72.5319V34.2Z" fill="white"/>
</g>
<defs>
<clipPath id="clip0">
<rect width="114.079" height="114" fill="white" transform="translate(0.281647)"/>
</clipPath>
</defs>
</svg>
